<svg width="100%" height="100%" viewBox="0 0 16 16" fill="none" xmlns="http://www.w3.org/2000/svg">
<g clip-path="url(#clip0_118_270)">
<path d="M13.4921 9.61817C12.6951 8.81982 11.3433 9.09712 10.9228 10.1447C10.7148 10.6627 10.52 11.0074 10.443 11.0845C8.9243 12.6059 7.18415 11.1428 6.0414 9.99804C4.90772 8.86244 3.42624 7.0659 4.89342 5.59623C4.97467 5.51484 5.33184 5.30796 5.86726 5.08959C6.9067 4.66565 7.17581 3.31503 6.38223 2.52009L5.37503 1.47344C4.78033 0.877698 3.83153 0.840859 3.18676 1.38179C3.00052 1.53801 2.82 1.70456 2.64598 1.88146C-0.318848 4.89472 1.06668 9.05601 4.06885 12.0319C7.05233 14.9894 11.1874 16.2899 14.159 13.3131C14.3227 13.1491 14.4774 12.9794 14.6231 12.8048C15.1604 12.1607 15.1189 11.2126 14.5264 10.6191L13.4921 9.61817Z" stroke="currentColor" stroke-miterlimit="10" stroke-linecap="round" stroke-linejoin="round"/>
</g>
<defs>
<clipPath id="clip0_118_270">
<rect width="16" height="16" fill="currentColor"/>
</clipPath>
</defs>
</svg>
