<svg width="100%" height="100%" viewBox="0 0 16 16" fill="none" xmlns="http://www.w3.org/2000/svg">
<path d="M5.31922 6.94336C4.65772 6.26719 4.25 5.35658 4.25 4.33594C4.25 2.26488 5.92892 0.585938 8 0.585938C10.0711 0.585938 11.75 2.26488 11.75 4.33594C11.75 6.40699 10.0711 8.08594 8 8.08594" stroke="currentColor" stroke-miterlimit="10" stroke-linecap="round" stroke-linejoin="round"/>
<path d="M12.3334 8.58333C13.0248 8.93872 13.5778 9.35934 13.9971 9.78548C14.6362 10.4351 15 11.3736 15 12.3578V13.6275C15 14.3855 14.4688 15 13.8136 15H7.76514" stroke="currentColor" stroke-miterlimit="10" stroke-linecap="round"/>
<path d="M3.66657 8.58333C2.97523 8.93872 2.42217 9.35934 2.00291 9.78548C1.36378 10.4351 0.999982 11.3736 0.999982 12.3578V13.6275C0.999982 14.3855 1.53115 15 2.18642 15H8.23486" stroke="currentColor" stroke-miterlimit="10" stroke-linecap="round"/>
<path d="M8 7.29688C7.62895 7.29688 7.32812 7.5977 7.32812 7.96875C7.32812 8.3398 7.62895 8.64062 8 8.64062C8.37105 8.64062 8.67187 8.3398 8.67187 7.96875C8.67187 7.5977 8.37105 7.29688 8 7.29688Z" fill="currentColor" stroke="currentColor"/>
</svg>
