<svg width="100%" height="100%" viewBox="0 0 65 50" fill="none" xmlns="http://www.w3.org/2000/svg">
<path d="M40 25V43.6667C40 46.6121 42.3879 49 45.3333 49H58.6667C61.6121 49 64 46.6121 64 43.6667V30.3333C64 27.3879 61.6121 25 58.6667 25H40Z" stroke="#D12427" stroke-width="2" stroke-miterlimit="10" stroke-linecap="round" stroke-linejoin="round"/>
<path d="M40 25V17C40 8.16347 47.1635 1 56 1H64" stroke="#D12427" stroke-width="2" stroke-miterlimit="10" stroke-linecap="round" stroke-linejoin="round"/>
<path d="M1 25V43.6667C1 46.6121 3.38787 49 6.33333 49H19.6667C22.6121 49 25 46.6121 25 43.6667V30.3333C25 27.3879 22.6121 25 19.6667 25H1Z" stroke="#D12427" stroke-width="2" stroke-miterlimit="10" stroke-linecap="round" stroke-linejoin="round"/>
<path d="M1 25V17C1 8.16347 8.16347 1 17 1H25" stroke="#D12427" stroke-width="2" stroke-miterlimit="10" stroke-linecap="round" stroke-linejoin="round"/>
</svg>
