<svg width="100%" height="100%" viewBox="0 0 48 48" fill="none" xmlns="http://www.w3.org/2000/svg">
<rect x="0.5" y="0.5" width="47" height="47" stroke="white"/>
<path d="M34.9159 18.6942C34.8277 18.1694 34.5805 17.6844 34.2078 17.3046C33.8352 16.9247 33.3549 16.6684 32.8319 16.5702C26.7148 15.8099 20.5271 15.8099 14.4099 16.5702C13.8866 16.668 13.4059 16.9242 13.0329 17.3041C12.6598 17.6839 12.4123 18.1691 12.3239 18.6942C11.892 22.3729 11.892 26.0895 12.3239 29.7682C12.4115 30.2934 12.6585 30.779 13.0315 31.1589C13.4045 31.5389 13.8854 31.7949 14.4089 31.8922C20.5261 32.6524 26.7138 32.6524 32.8309 31.8922C33.3543 31.7947 33.835 31.5387 34.2078 31.1587C34.5806 30.7787 34.8275 30.2933 34.9149 29.7682C35.3473 26.0895 35.3476 22.3729 34.9159 18.6942ZM21.6829 28.1052V20.3582L27.4929 24.2322L21.6829 28.1052Z" fill="white"/>
</svg>
